<?xml version="1.0" encoding="UTF-8"?>
<svg width="32" height="32" viewBox="0 0 32 32" xmlns="http://www.w3.org/2000/svg">
  <defs>
    <linearGradient id="gradient1" x1="0%" y1="0%" x2="100%" y2="0%">
      <stop offset="0%" stop-color="#4F46E5" />
      <stop offset="100%" stop-color="#7C3AED" />
    </linearGradient>
    <linearGradient id="gradient2" x1="0%" y1="0%" x2="100%" y2="0%">
      <stop offset="0%" stop-color="#7C3AED" />
      <stop offset="100%" stop-color="#EC4899" />
    </linearGradient>
    <linearGradient id="gradient3" x1="0%" y1="0%" x2="100%" y2="0%">
      <stop offset="0%" stop-color="#EC4899" />
      <stop offset="100%" stop-color="#F59E0B" />
    </linearGradient>
  </defs>
  <!-- Streamgraph layers in a square format for favicon -->
  <rect width="32" height="32" rx="6" fill="#ffffff" />
  <path d="M0,16 C3.2,8 6.4,10.7 9.6,13.3 C12.8,16 16,18.7 19.2,16 C22.4,13.3 25.6,8 28.8,10.7 C32,13.3 32,16 32,16 L32,32 L0,32 Z" fill="url(#gradient1)" opacity="0.8" />
  <path d="M0,16 C3.2,18.7 6.4,13.3 9.6,10.7 C12.8,8 16,13.3 19.2,18.7 C22.4,24 25.6,21.3 28.8,18.7 C32,16 32,16 32,16 L32,32 L0,32 Z" fill="url(#gradient2)" opacity="0.6" />
  <path d="M0,16 C3.2,13.3 6.4,18.7 9.6,21.3 C12.8,24 16,21.3 19.2,18.7 C22.4,16 25.6,13.3 28.8,16 C32,18.7 32,16 32,16 L32,32 L0,32 Z" fill="url(#gradient3)" opacity="0.4" />
</svg>