<?xml version="1.0" encoding="UTF-8"?>
<svg width="100" height="60" viewBox="0 0 100 60" xmlns="http://www.w3.org/2000/svg">
  <defs>
    <linearGradient id="gradient1" x1="0%" y1="0%" x2="100%" y2="0%">
      <stop offset="0%" stop-color="#4F46E5" />
      <stop offset="100%" stop-color="#7C3AED" />
    </linearGradient>
    <linearGradient id="gradient2" x1="0%" y1="0%" x2="100%" y2="0%">
      <stop offset="0%" stop-color="#7C3AED" />
      <stop offset="100%" stop-color="#EC4899" />
    </linearGradient>
    <linearGradient id="gradient3" x1="0%" y1="0%" x2="100%" y2="0%">
      <stop offset="0%" stop-color="#EC4899" />
      <stop offset="100%" stop-color="#F59E0B" />
    </linearGradient>
  </defs>
  <!-- Streamgraph layers -->
  <path d="M0,30 C10,15 20,20 30,25 C40,30 50,35 60,30 C70,25 80,15 90,20 C100,25 100,30 100,30 L100,60 L0,60 Z" fill="url(#gradient1)" opacity="0.8" />
  <path d="M0,30 C10,35 20,25 30,20 C40,15 50,25 60,35 C70,45 80,40 90,35 C100,30 100,30 100,30 L100,60 L0,60 Z" fill="url(#gradient2)" opacity="0.6" />
  <path d="M0,30 C10,25 20,35 30,40 C40,45 50,40 60,35 C70,30 80,25 90,30 C100,35 100,30 100,30 L100,60 L0,60 Z" fill="url(#gradient3)" opacity="0.4" />
</svg>